<svg xmlns="http://www.w3.org/2000/svg" viewBox="0 0 24 24" width="24" height="24" color="#000000" fill="none">
    <defs />
    <path fill="currentColor" d="M21.47,22.531 L14.747,15.808 C14.713,18.49 14.514,20.128 13.365,20.612 C13.134,20.71 12.909,20.758 12.681,20.758 L12.678,20.761 C11.537,20.761 10.359,19.559 8.345,17.504 L8.345,17.504 C7.37,16.51 6.918,16.322 5.501,16.322 C5.424,16.322 5.346,16.323 5.266,16.323 C5.226,16.324 5.185,16.324 5.144,16.325 L5.143,16.325 L5.143,16.325 C4.05,16.34 2.554,16.36 1.713,15.075 C1.251,14.376 1.251,13.532 1.251,12 L1.251,11.999 C1.251,10.467 1.251,9.624 1.716,8.922 C2.555,7.639 4.051,7.66 5.144,7.675 L5.144,7.675 L5.145,7.675 C5.266,7.677 5.385,7.678 5.502,7.678 L5.59,7.678 C5.998,7.678 6.325,7.675 6.593,7.654 L1.47,2.531 C1.177,2.238 1.177,1.763 1.47,1.47 C1.763,1.177 2.238,1.177 2.531,1.47 L8.451,7.39 C8.478,7.413 8.504,7.439 8.529,7.468 L14.477,13.416 C14.517,13.448 14.553,13.485 14.586,13.525 L22.531,21.47 C22.824,21.763 22.824,22.238 22.531,22.531 C22.385,22.677 22.193,22.751 22.001,22.751 L22,22.751 C21.808,22.751 21.616,22.678 21.47,22.531 Z M13.254,14.315 L7.838,8.899 C7.201,9.171 6.483,9.178 5.632,9.178 L5.503,9.178 C5.381,9.178 5.256,9.176 5.129,9.174 L5.125,9.174 C4.06,9.159 3.333,9.191 2.971,9.745 C2.753,10.074 2.753,10.758 2.753,11.999 C2.753,13.24 2.753,13.923 2.969,14.249 C3.334,14.807 4.06,14.838 5.126,14.823 C5.254,14.821 5.38,14.819 5.504,14.819 C7.321,14.819 8.163,15.17 9.419,16.451 L9.421,16.453 L9.421,16.453 C10.982,18.046 12.33,19.422 12.78,19.231 L12.78,19.23 C12.792,19.221 13.032,19.028 13.157,17.766 C13.247,16.853 13.253,15.675 13.254,14.315 Z M13.25,9.501 L13.25,9.215 C13.25,7.747 13.25,6.588 13.145,5.771 C13.03,4.887 12.831,4.779 12.809,4.769 C12.446,4.614 11.339,5.722 10.531,6.531 C10.238,6.824 9.763,6.824 9.47,6.531 C9.177,6.238 9.177,5.763 9.47,5.47 C10.996,3.942 12.099,2.838 13.393,3.386 C14.752,3.959 14.752,5.826 14.751,9.214 L14.751,9.5 C14.751,9.914 14.415,10.25 14.001,10.25 L14,10.251 C13.586,10.251 13.25,9.915 13.25,9.501 Z M20.589,17.099 C20.425,17.099 20.259,17.045 20.121,16.934 C19.798,16.675 19.746,16.203 20.004,15.88 C20.819,14.863 21.249,13.695 21.249,12.501 C21.249,11.05 20.635,9.679 19.473,8.536 C19.178,8.246 19.174,7.771 19.465,7.475 C19.756,7.179 20.23,7.176 20.526,7.466 C21.96,8.877 22.75,10.665 22.75,12.501 C22.75,14.039 22.205,15.532 21.175,16.818 C21.027,17.003 20.809,17.099 20.589,17.099 Z M17.572,14.715 C17.177,14.589 16.96,14.167 17.086,13.772 C17.195,13.43 17.25,13.076 17.25,12.719 C17.25,11.912 16.963,11.137 16.42,10.476 C16.157,10.156 16.203,9.683 16.524,9.42 C16.844,9.157 17.317,9.203 17.58,9.524 C18.346,10.456 18.75,11.561 18.75,12.719 C18.75,13.231 18.671,13.739 18.514,14.228 C18.412,14.547 18.117,14.75 17.8,14.75 L17.8,14.751 Q17.686,14.751 17.572,14.715 Z" />
</svg>