<svg xmlns="http://www.w3.org/2000/svg" viewBox="0 0 24 24" width="24" height="24" color="#000000" fill="none">
    <defs />
    <path fill="#141B34" d="M12.5,1.25 C18.437,1.25 23.25,6.063 23.25,12 C23.25,17.937 18.437,22.75 12.5,22.75 C6.563,22.75 1.75,17.937 1.75,12 C1.75,6.063 6.563,1.25 12.5,1.25 Z M3.25,12 C3.25,17.109 7.391,21.25 12.5,21.25 C17.609,21.25 21.75,17.109 21.75,12 C21.75,6.891 17.609,2.75 12.5,2.75 C7.391,2.75 3.25,6.891 3.25,12 Z M14.089,9.037 C14.77,9.458 15.339,9.81 15.75,10.138 C16.174,10.475 16.548,10.873 16.682,11.429 C16.773,11.803 16.773,12.196 16.682,12.571 C16.548,13.126 16.174,13.525 15.75,13.862 C15.339,14.19 14.77,14.541 14.089,14.963 L14.089,14.963 L14.007,15.014 C13.35,15.42 12.799,15.761 12.342,15.972 C11.879,16.187 11.35,16.349 10.799,16.179 C10.434,16.067 10.111,15.856 9.855,15.575 C9.483,15.166 9.361,14.632 9.305,14.099 C9.25,13.567 9.25,12.88 9.25,12.043 L9.25,11.957 C9.25,11.12 9.25,10.433 9.305,9.901 C9.361,9.368 9.483,8.834 9.855,8.425 C10.111,8.144 10.434,7.933 10.799,7.821 C11.35,7.651 11.879,7.813 12.342,8.027 C12.799,8.239 13.35,8.58 14.007,8.986 Z M10.965,9.435 C10.927,9.476 10.844,9.604 10.797,10.056 C10.751,10.501 10.75,11.109 10.75,12 C10.75,12.89 10.751,13.499 10.797,13.943 C10.844,14.396 10.927,14.523 10.965,14.565 C11.048,14.656 11.144,14.716 11.241,14.746 L11.241,14.746 C11.25,14.748 11.349,14.779 11.712,14.611 C12.077,14.442 12.55,14.151 13.259,13.712 C13.992,13.259 14.483,12.954 14.817,12.688 C15.147,12.426 15.207,12.29 15.224,12.219 C15.259,12.076 15.259,11.924 15.224,11.781 C15.207,11.71 15.147,11.574 14.817,11.311 C14.483,11.046 13.992,10.741 13.259,10.288 C12.55,9.849 12.077,9.557 11.712,9.388 C11.348,9.22 11.25,9.251 11.241,9.254 C11.144,9.284 11.048,9.343 10.965,9.435 Z" />
</svg>